<?xml version="1.0" encoding="UTF-8"?>
<svg id="Ebene_2" data-name="Ebene 2" xmlns="http://www.w3.org/2000/svg" viewBox="0 0 625.94 188.43">
  <defs>
    <style>
      .cls-1 {
        fill: blue;
      }

      .cls-2 {
        fill: #000040;
      }

      .cls-3 {
        fill: #ffb500;
      }
    </style>
  </defs>
  <g id="Ebene_1-2" data-name="Ebene 1">
    <g>
      <g>
        <path class="cls-1" d="M49.49,184.81H0V3.62h49.49v181.2ZM3,181.81h43.49V6.62H3v175.2Z"/>
        <path class="cls-1" d="M149.22,188.43c-48.87,0-77.28-21.13-80.01-59.5l-.11-1.61h49.34l.23,1.23c3.1,16.8,17.15,22.79,29.26,22.79s21.23-6.32,21.23-15.03c0-6.21-2.85-15.17-27.53-21.27-41.45-10.3-65.45-23.39-65.45-59.82,0-16.67,7.28-30.83,21.05-40.95C109.75,5.07,126.75,0,145.09,0c53.7,0,68.79,32.6,71.99,59.95l.2,1.67h-49.48l-.18-1.29c-1.49-10.6-6.79-23.24-23.57-23.24-6.1,0-16.32,1.89-16.32,14.51,0,9.62,5.98,16.61,36.55,23.85,37.97,8.99,56.42,27.88,56.42,57.76,0,37.94-37.06,55.22-71.49,55.22ZM72.34,130.32c1.65,18.1,9.25,32,22.6,41.34,13.07,9.14,31.33,13.77,54.28,13.77,32.98,0,68.49-16.34,68.49-52.22,0-28.28-17.7-46.22-54.11-54.84-28.69-6.8-38.86-13.8-38.86-26.77,0-10.97,7.22-17.51,19.32-17.51,14.6,0,23.69,8.48,26.34,24.53h43.5C207.72,12.71,173.17,3,145.09,3c-17.71,0-34.07,4.86-46.08,13.69-12.97,9.53-19.82,22.86-19.82,38.53,0,34.47,23.16,46.97,63.17,56.91,20.33,5.02,29.8,12.71,29.8,24.18,0,10.45-10.19,18.03-24.23,18.03-13.02,0-28.08-6.34-31.96-24.02h-43.63Z"/>
        <path class="cls-1" d="M382.37,184.81h-139.62V3.62h137.03v39.16h-87.55v31.61h82.38v39.16h-82.38v32.12h90.13v39.16ZM245.76,181.81h133.62v-33.16h-90.13v-38.12h82.38v-33.16h-82.38v-37.61h87.55V6.62h-131.03v175.2Z"/>
      </g>
      <g>
        <g>
          <path class="cls-2" d="M245.68,164.69h-58.38v-76.14h57.27v15.45h-37.41v14.79h35.2v15.45h-35.2v15.01h38.51v15.45Z"/>
          <path class="cls-2" d="M279.99,164.69l-27.48-76.14h21.63l18.21,60.8,18.32-60.8h21.08l-27.48,76.14h-24.28Z"/>
          <path class="cls-2" d="M398.07,164.69h-58.38v-76.14h57.27v15.45h-37.41v14.79h35.2v15.45h-35.2v15.01h38.51v15.45Z"/>
          <path class="cls-2" d="M457.11,164.69l-27.7-50.32c.66,7.73.66,14.46.66,18.87v31.45h-19.86v-76.14h24.72l28.91,52.53c-.55-7.72-.66-15.56-.66-19.97v-32.55h19.86v76.14h-25.93Z"/>
          <path class="cls-2" d="M535.12,104v60.69h-19.86v-60.69h-24.72v-15.45h69.3v15.45h-24.72Z"/>
          <path class="cls-2" d="M624.4,112.05h-19.86c-.88-6.29-4.19-10.48-10.71-10.48-4.52,0-7.61,2.21-7.61,6.84s3.53,7.84,16.11,10.82c16.77,3.97,23.62,12.36,23.62,24.06,0,15.23-14.57,22.95-29.91,22.95-19.31,0-32.33-7.72-33.55-24.83h19.86c1.32,7.17,7.17,10.26,13.13,10.26,5.52,0,9.71-2.87,9.71-7.06,0-3.97-2.87-7.39-12.25-9.71-17.33-4.3-27.48-9.71-27.48-24.94s13.68-22.95,28.8-22.95c20.08,0,28.47,10.93,30.13,25.05Z"/>
        </g>
        <g>
          <path class="cls-3" d="M245.68,164.69h-58.38v-76.14h57.27v15.45h-37.41v14.79h35.2v15.45h-35.2v15.01h38.51v15.45Z"/>
          <path class="cls-3" d="M279.99,164.69l-27.48-76.14h21.63l18.21,60.8,18.32-60.8h21.08l-27.48,76.14h-24.28Z"/>
          <path class="cls-3" d="M398.07,164.69h-58.38v-76.14h57.27v15.45h-37.41v14.79h35.2v15.45h-35.2v15.01h38.51v15.45Z"/>
          <path class="cls-3" d="M457.11,164.69l-27.7-50.32c.66,7.73.66,14.46.66,18.87v31.45h-19.86v-76.14h24.72l28.91,52.53c-.55-7.72-.66-15.56-.66-19.97v-32.55h19.86v76.14h-25.93Z"/>
          <path class="cls-3" d="M535.12,104v60.69h-19.86v-60.69h-24.72v-15.45h69.3v15.45h-24.72Z"/>
          <path class="cls-3" d="M624.4,112.05h-19.86c-.88-6.29-4.19-10.48-10.71-10.48-4.52,0-7.61,2.21-7.61,6.84s3.53,7.84,16.11,10.82c16.77,3.97,23.62,12.36,23.62,24.06,0,15.23-14.57,22.95-29.91,22.95-19.31,0-32.33-7.72-33.55-24.83h19.86c1.32,7.17,7.17,10.26,13.13,10.26,5.52,0,9.71-2.87,9.71-7.06,0-3.97-2.87-7.39-12.25-9.71-17.33-4.3-27.48-9.71-27.48-24.94s13.68-22.95,28.8-22.95c20.08,0,28.47,10.93,30.13,25.05Z"/>
        </g>
      </g>
    </g>
  </g>
</svg>